# xmcd
#
# Track frame offsets:
# 150
# 15816
# 35009
# 49673
# 69458
#
# Disc length: 1153 seconds
#
# Revision: 1
# Processed by: cddbd v1.5.2PL0 Copyright (c) Steve Scherf et al.
# Submitted via: CedeCatalogueitor 2.6.0.6 http://personales.ya.com/cdcatalogueitor
#
DISCID=34047f05
DTITLE=Montevideo - Orillas Plutonianas
DYEAR=1900
DGENRE=
TTITLE0=Orillas Plutonianas
TTITLE1=Remix David Kano
TTITLE2=Remix Fizz Moon
TTITLE3=Remix Pin&Pon Djs
TTITLE4=Remix Oblique
EXTD=
EXTT0=
EXTT1=
EXTT2=
EXTT3=
EXTT4=
PLAYORDER=
